<mxfile host="Electron" agent="Mozilla/5.0 (Windows NT 10.0; Win64; x64) AppleWebKit/537.36 (KHTML, like Gecko) draw.io/24.7.8 Chrome/128.0.6613.36 Electron/32.0.1 Safari/537.36" version="24.7.8">
  <diagram name="Strona-1" id="bdYZarhWwnNevOuEMBzX">
    <mxGraphModel dx="2403" dy="3136" grid="1" gridSize="10" guides="1" tooltips="1" connect="1" arrows="1" fold="1" page="1" pageScale="1" pageWidth="827" pageHeight="1169" math="0" shadow="0">
      <root>
        <mxCell id="0" />
        <mxCell id="1" parent="0" />
        <mxCell id="wbfZPtrRBLeSPW4oJf3d-215" value="&lt;font style=&quot;font-size: 14px;&quot;&gt;cd System koordynacji pomocy humanitatnej&amp;nbsp;&lt;/font&gt;" style="shape=umlFrame;whiteSpace=wrap;html=1;pointerEvents=0;recursiveResize=0;container=1;collapsible=0;width=300;height=35;" parent="1" vertex="1">
          <mxGeometry x="550" y="-640" width="2080" height="1370" as="geometry" />
        </mxCell>
        <mxCell id="KYm69CL8cMX49H1j501y-74" value="powiadomienie" style="text;html=1;align=center;verticalAlign=middle;whiteSpace=wrap;rounded=0;" parent="wbfZPtrRBLeSPW4oJf3d-215" vertex="1">
          <mxGeometry x="1045" y="900" width="60" height="30" as="geometry" />
        </mxCell>
        <mxCell id="wbfZPtrRBLeSPW4oJf3d-64" value="Bezpieczeństwo i uwierzytelnianie" style="html=1;dropTarget=0;whiteSpace=wrap;" parent="1" vertex="1">
          <mxGeometry x="982" y="80" width="180" height="90" as="geometry" />
        </mxCell>
        <mxCell id="wbfZPtrRBLeSPW4oJf3d-65" value="" style="shape=module;jettyWidth=8;jettyHeight=4;" parent="wbfZPtrRBLeSPW4oJf3d-64" vertex="1">
          <mxGeometry x="1" width="20" height="20" relative="1" as="geometry">
            <mxPoint x="-27" y="7" as="offset" />
          </mxGeometry>
        </mxCell>
        <mxCell id="wbfZPtrRBLeSPW4oJf3d-66" value="Zarządzanie zgłoszeniami potrzeb" style="html=1;dropTarget=0;whiteSpace=wrap;" parent="1" vertex="1">
          <mxGeometry x="1280" y="-420" width="180" height="90" as="geometry" />
        </mxCell>
        <mxCell id="wbfZPtrRBLeSPW4oJf3d-67" value="" style="shape=module;jettyWidth=8;jettyHeight=4;" parent="wbfZPtrRBLeSPW4oJf3d-66" vertex="1">
          <mxGeometry x="1" width="20" height="20" relative="1" as="geometry">
            <mxPoint x="-27" y="7" as="offset" />
          </mxGeometry>
        </mxCell>
        <mxCell id="wbfZPtrRBLeSPW4oJf3d-68" value="Web Controller" style="html=1;dropTarget=0;whiteSpace=wrap;" parent="1" vertex="1">
          <mxGeometry x="982" y="-210" width="180" height="90" as="geometry" />
        </mxCell>
        <mxCell id="wbfZPtrRBLeSPW4oJf3d-69" value="" style="shape=module;jettyWidth=8;jettyHeight=4;" parent="wbfZPtrRBLeSPW4oJf3d-68" vertex="1">
          <mxGeometry x="1" width="20" height="20" relative="1" as="geometry">
            <mxPoint x="-27" y="7" as="offset" />
          </mxGeometry>
        </mxCell>
        <mxCell id="wbfZPtrRBLeSPW4oJf3d-74" value="zarządzanie sesją użytkownika" style="text;html=1;align=center;verticalAlign=middle;whiteSpace=wrap;rounded=0;" parent="1" vertex="1">
          <mxGeometry x="1092" y="20" width="60" height="30" as="geometry" />
        </mxCell>
        <mxCell id="wbfZPtrRBLeSPW4oJf3d-78" value="autentykacja" style="text;html=1;align=center;verticalAlign=middle;whiteSpace=wrap;rounded=0;" parent="1" vertex="1">
          <mxGeometry x="942" y="20" width="60" height="30" as="geometry" />
        </mxCell>
        <mxCell id="wbfZPtrRBLeSPW4oJf3d-79" value="Zarządzanie zadaniami" style="html=1;dropTarget=0;whiteSpace=wrap;" parent="1" vertex="1">
          <mxGeometry x="1280" y="-210" width="180" height="90" as="geometry" />
        </mxCell>
        <mxCell id="wbfZPtrRBLeSPW4oJf3d-80" value="" style="shape=module;jettyWidth=8;jettyHeight=4;" parent="wbfZPtrRBLeSPW4oJf3d-79" vertex="1">
          <mxGeometry x="1" width="20" height="20" relative="1" as="geometry">
            <mxPoint x="-27" y="7" as="offset" />
          </mxGeometry>
        </mxCell>
        <mxCell id="wbfZPtrRBLeSPW4oJf3d-83" value="Zarządzanie użytkownikami" style="html=1;dropTarget=0;whiteSpace=wrap;" parent="1" vertex="1">
          <mxGeometry x="1175" y="260" width="180" height="90" as="geometry" />
        </mxCell>
        <mxCell id="wbfZPtrRBLeSPW4oJf3d-84" value="" style="shape=module;jettyWidth=8;jettyHeight=4;" parent="wbfZPtrRBLeSPW4oJf3d-83" vertex="1">
          <mxGeometry x="1" width="20" height="20" relative="1" as="geometry">
            <mxPoint x="-27" y="7" as="offset" />
          </mxGeometry>
        </mxCell>
        <mxCell id="wbfZPtrRBLeSPW4oJf3d-87" value="Web GUI" style="html=1;dropTarget=0;whiteSpace=wrap;" parent="1" vertex="1">
          <mxGeometry x="750" y="-440" width="180" height="90" as="geometry" />
        </mxCell>
        <mxCell id="wbfZPtrRBLeSPW4oJf3d-88" value="" style="shape=module;jettyWidth=8;jettyHeight=4;" parent="wbfZPtrRBLeSPW4oJf3d-87" vertex="1">
          <mxGeometry x="1" width="20" height="20" relative="1" as="geometry">
            <mxPoint x="-27" y="7" as="offset" />
          </mxGeometry>
        </mxCell>
        <mxCell id="wbfZPtrRBLeSPW4oJf3d-105" value="Zarządzanie zasobami" style="html=1;dropTarget=0;whiteSpace=wrap;" parent="1" vertex="1">
          <mxGeometry x="1280" y="-10" width="180" height="90" as="geometry" />
        </mxCell>
        <mxCell id="wbfZPtrRBLeSPW4oJf3d-106" value="" style="shape=module;jettyWidth=8;jettyHeight=4;" parent="wbfZPtrRBLeSPW4oJf3d-105" vertex="1">
          <mxGeometry x="1" width="20" height="20" relative="1" as="geometry">
            <mxPoint x="-27" y="7" as="offset" />
          </mxGeometry>
        </mxCell>
        <mxCell id="wbfZPtrRBLeSPW4oJf3d-111" value="" style="rounded=0;orthogonalLoop=1;jettySize=auto;html=1;endArrow=halfCircle;endFill=0;endSize=6;strokeWidth=1;sketch=0;exitX=0.5;exitY=1;exitDx=0;exitDy=0;" parent="1" source="wbfZPtrRBLeSPW4oJf3d-68" target="wbfZPtrRBLeSPW4oJf3d-113" edge="1">
          <mxGeometry relative="1" as="geometry">
            <mxPoint x="1130" y="25" as="sourcePoint" />
          </mxGeometry>
        </mxCell>
        <mxCell id="wbfZPtrRBLeSPW4oJf3d-112" value="" style="rounded=0;orthogonalLoop=1;jettySize=auto;html=1;endArrow=oval;endFill=0;sketch=0;sourcePerimeterSpacing=0;targetPerimeterSpacing=0;endSize=10;exitX=0.5;exitY=0;exitDx=0;exitDy=0;" parent="1" source="wbfZPtrRBLeSPW4oJf3d-64" target="wbfZPtrRBLeSPW4oJf3d-113" edge="1">
          <mxGeometry relative="1" as="geometry">
            <mxPoint x="1142" y="135" as="sourcePoint" />
          </mxGeometry>
        </mxCell>
        <mxCell id="wbfZPtrRBLeSPW4oJf3d-113" value="" style="ellipse;whiteSpace=wrap;html=1;align=center;aspect=fixed;fillColor=none;strokeColor=none;resizable=0;perimeter=centerPerimeter;rotatable=0;allowArrows=0;points=[];outlineConnect=1;" parent="1" vertex="1">
          <mxGeometry x="1067" y="30" width="10" height="10" as="geometry" />
        </mxCell>
        <mxCell id="wbfZPtrRBLeSPW4oJf3d-116" value="" style="rounded=0;orthogonalLoop=1;jettySize=auto;html=1;endArrow=halfCircle;endFill=0;endSize=6;strokeWidth=1;sketch=0;exitX=0.25;exitY=1;exitDx=0;exitDy=0;" parent="1" source="wbfZPtrRBLeSPW4oJf3d-68" target="wbfZPtrRBLeSPW4oJf3d-118" edge="1">
          <mxGeometry relative="1" as="geometry">
            <mxPoint x="1130" y="25" as="sourcePoint" />
          </mxGeometry>
        </mxCell>
        <mxCell id="wbfZPtrRBLeSPW4oJf3d-117" value="" style="rounded=0;orthogonalLoop=1;jettySize=auto;html=1;endArrow=oval;endFill=0;sketch=0;sourcePerimeterSpacing=0;targetPerimeterSpacing=0;endSize=10;exitX=0.25;exitY=0;exitDx=0;exitDy=0;" parent="1" source="wbfZPtrRBLeSPW4oJf3d-64" target="wbfZPtrRBLeSPW4oJf3d-118" edge="1">
          <mxGeometry relative="1" as="geometry">
            <mxPoint x="1142" y="135" as="sourcePoint" />
          </mxGeometry>
        </mxCell>
        <mxCell id="wbfZPtrRBLeSPW4oJf3d-118" value="" style="ellipse;whiteSpace=wrap;html=1;align=center;aspect=fixed;fillColor=none;strokeColor=none;resizable=0;perimeter=centerPerimeter;rotatable=0;allowArrows=0;points=[];outlineConnect=1;" parent="1" vertex="1">
          <mxGeometry x="1022" y="30" width="10" height="10" as="geometry" />
        </mxCell>
        <mxCell id="wbfZPtrRBLeSPW4oJf3d-119" value="" style="rounded=0;orthogonalLoop=1;jettySize=auto;html=1;endArrow=halfCircle;endFill=0;endSize=6;strokeWidth=1;sketch=0;exitX=0.75;exitY=0;exitDx=0;exitDy=0;" parent="1" source="wbfZPtrRBLeSPW4oJf3d-68" target="wbfZPtrRBLeSPW4oJf3d-121" edge="1">
          <mxGeometry relative="1" as="geometry">
            <mxPoint x="1060" y="-345" as="sourcePoint" />
          </mxGeometry>
        </mxCell>
        <mxCell id="wbfZPtrRBLeSPW4oJf3d-120" value="" style="rounded=0;orthogonalLoop=1;jettySize=auto;html=1;endArrow=oval;endFill=0;sketch=0;sourcePerimeterSpacing=0;targetPerimeterSpacing=0;endSize=10;exitX=0;exitY=0.5;exitDx=0;exitDy=0;" parent="1" source="wbfZPtrRBLeSPW4oJf3d-66" target="wbfZPtrRBLeSPW4oJf3d-121" edge="1">
          <mxGeometry relative="1" as="geometry">
            <mxPoint x="1020" y="-345" as="sourcePoint" />
          </mxGeometry>
        </mxCell>
        <mxCell id="wbfZPtrRBLeSPW4oJf3d-121" value="" style="ellipse;whiteSpace=wrap;html=1;align=center;aspect=fixed;fillColor=none;strokeColor=none;resizable=0;perimeter=centerPerimeter;rotatable=0;allowArrows=0;points=[];outlineConnect=1;" parent="1" vertex="1">
          <mxGeometry x="1216" y="-380" width="10" height="10" as="geometry" />
        </mxCell>
        <mxCell id="wbfZPtrRBLeSPW4oJf3d-123" value="zgłoszenie" style="text;html=1;align=center;verticalAlign=middle;whiteSpace=wrap;rounded=0;" parent="1" vertex="1">
          <mxGeometry x="1162" y="-410" width="60" height="30" as="geometry" />
        </mxCell>
        <mxCell id="wbfZPtrRBLeSPW4oJf3d-136" value="" style="rounded=0;orthogonalLoop=1;jettySize=auto;html=1;endArrow=halfCircle;endFill=0;endSize=6;strokeWidth=1;sketch=0;exitX=1;exitY=0.5;exitDx=0;exitDy=0;" parent="1" source="KYm69CL8cMX49H1j501y-21" edge="1">
          <mxGeometry relative="1" as="geometry">
            <mxPoint x="1076" y="-55" as="sourcePoint" />
            <mxPoint x="1228" y="125" as="targetPoint" />
          </mxGeometry>
        </mxCell>
        <mxCell id="wbfZPtrRBLeSPW4oJf3d-156" value="" style="rounded=0;orthogonalLoop=1;jettySize=auto;html=1;endArrow=halfCircle;endFill=0;endSize=6;strokeWidth=1;sketch=0;exitX=1;exitY=0.5;exitDx=0;exitDy=0;" parent="1" source="wbfZPtrRBLeSPW4oJf3d-68" target="wbfZPtrRBLeSPW4oJf3d-158" edge="1">
          <mxGeometry relative="1" as="geometry">
            <mxPoint x="1120" y="-165" as="sourcePoint" />
          </mxGeometry>
        </mxCell>
        <mxCell id="wbfZPtrRBLeSPW4oJf3d-157" value="" style="rounded=0;orthogonalLoop=1;jettySize=auto;html=1;endArrow=oval;endFill=0;sketch=0;sourcePerimeterSpacing=0;targetPerimeterSpacing=0;endSize=10;exitX=0;exitY=0.5;exitDx=0;exitDy=0;" parent="1" source="wbfZPtrRBLeSPW4oJf3d-79" target="wbfZPtrRBLeSPW4oJf3d-158" edge="1">
          <mxGeometry relative="1" as="geometry">
            <mxPoint x="1460" y="-225" as="sourcePoint" />
          </mxGeometry>
        </mxCell>
        <mxCell id="wbfZPtrRBLeSPW4oJf3d-158" value="" style="ellipse;whiteSpace=wrap;html=1;align=center;aspect=fixed;fillColor=none;strokeColor=none;resizable=0;perimeter=centerPerimeter;rotatable=0;allowArrows=0;points=[];outlineConnect=1;" parent="1" vertex="1">
          <mxGeometry x="1216" y="-170" width="10" height="10" as="geometry" />
        </mxCell>
        <mxCell id="wbfZPtrRBLeSPW4oJf3d-159" value="zadanie" style="text;html=1;align=center;verticalAlign=middle;whiteSpace=wrap;rounded=0;" parent="1" vertex="1">
          <mxGeometry x="1191" y="-200" width="60" height="30" as="geometry" />
        </mxCell>
        <mxCell id="wbfZPtrRBLeSPW4oJf3d-168" value="Raportowanie i monitorowanie" style="html=1;dropTarget=0;whiteSpace=wrap;" parent="1" vertex="1">
          <mxGeometry x="620" y="-230" width="180" height="90" as="geometry" />
        </mxCell>
        <mxCell id="wbfZPtrRBLeSPW4oJf3d-169" value="" style="shape=module;jettyWidth=8;jettyHeight=4;" parent="wbfZPtrRBLeSPW4oJf3d-168" vertex="1">
          <mxGeometry x="1" width="20" height="20" relative="1" as="geometry">
            <mxPoint x="-27" y="7" as="offset" />
          </mxGeometry>
        </mxCell>
        <mxCell id="wbfZPtrRBLeSPW4oJf3d-184" value="" style="rounded=0;orthogonalLoop=1;jettySize=auto;html=1;endArrow=halfCircle;endFill=0;endSize=6;strokeWidth=1;sketch=0;exitX=0.75;exitY=1;exitDx=0;exitDy=0;" parent="1" source="wbfZPtrRBLeSPW4oJf3d-68" target="wbfZPtrRBLeSPW4oJf3d-186" edge="1">
          <mxGeometry relative="1" as="geometry">
            <mxPoint x="1090" y="-90" as="sourcePoint" />
          </mxGeometry>
        </mxCell>
        <mxCell id="wbfZPtrRBLeSPW4oJf3d-185" value="" style="rounded=0;orthogonalLoop=1;jettySize=auto;html=1;endArrow=oval;endFill=0;sketch=0;sourcePerimeterSpacing=0;targetPerimeterSpacing=0;endSize=10;exitX=0;exitY=0.5;exitDx=0;exitDy=0;" parent="1" source="wbfZPtrRBLeSPW4oJf3d-105" target="wbfZPtrRBLeSPW4oJf3d-186" edge="1">
          <mxGeometry relative="1" as="geometry">
            <mxPoint x="1360" y="-185" as="sourcePoint" />
          </mxGeometry>
        </mxCell>
        <mxCell id="wbfZPtrRBLeSPW4oJf3d-186" value="" style="ellipse;whiteSpace=wrap;html=1;align=center;aspect=fixed;fillColor=none;strokeColor=none;resizable=0;perimeter=centerPerimeter;rotatable=0;allowArrows=0;points=[];outlineConnect=1;" parent="1" vertex="1">
          <mxGeometry x="1223" y="30" width="10" height="10" as="geometry" />
        </mxCell>
        <mxCell id="wbfZPtrRBLeSPW4oJf3d-187" value="zasób" style="text;html=1;align=center;verticalAlign=middle;whiteSpace=wrap;rounded=0;" parent="1" vertex="1">
          <mxGeometry x="1216" width="60" height="30" as="geometry" />
        </mxCell>
        <mxCell id="wbfZPtrRBLeSPW4oJf3d-193" value="" style="endArrow=block;endSize=16;endFill=0;html=1;rounded=0;entryX=0.25;entryY=1;entryDx=0;entryDy=0;exitX=0.5;exitY=0;exitDx=0;exitDy=0;" parent="1" source="wbfZPtrRBLeSPW4oJf3d-154" target="wbfZPtrRBLeSPW4oJf3d-83" edge="1">
          <mxGeometry width="160" relative="1" as="geometry">
            <mxPoint x="1205" y="-30" as="sourcePoint" />
            <mxPoint x="1365" y="-30" as="targetPoint" />
          </mxGeometry>
        </mxCell>
        <mxCell id="wbfZPtrRBLeSPW4oJf3d-62" value="Repozytorium danych" style="html=1;dropTarget=0;whiteSpace=wrap;" parent="1" vertex="1">
          <mxGeometry x="1970" y="170" width="180" height="90" as="geometry" />
        </mxCell>
        <mxCell id="wbfZPtrRBLeSPW4oJf3d-63" value="" style="shape=module;jettyWidth=8;jettyHeight=4;" parent="wbfZPtrRBLeSPW4oJf3d-62" vertex="1">
          <mxGeometry x="1" width="20" height="20" relative="1" as="geometry">
            <mxPoint x="-27" y="7" as="offset" />
          </mxGeometry>
        </mxCell>
        <mxCell id="jIf5_SYDW_eX0Bh0rf3I-1" value="«baza danych»&lt;br&gt;&lt;b&gt;PostgreSQL&lt;/b&gt;" style="html=1;dropTarget=0;whiteSpace=wrap;" parent="1" vertex="1">
          <mxGeometry x="1970" y="350" width="180" height="90" as="geometry" />
        </mxCell>
        <mxCell id="jIf5_SYDW_eX0Bh0rf3I-2" value="" style="shape=module;jettyWidth=8;jettyHeight=4;" parent="jIf5_SYDW_eX0Bh0rf3I-1" vertex="1">
          <mxGeometry x="1" width="20" height="20" relative="1" as="geometry">
            <mxPoint x="-27" y="7" as="offset" />
          </mxGeometry>
        </mxCell>
        <mxCell id="jIf5_SYDW_eX0Bh0rf3I-9" value="CRUD" style="text;html=1;align=center;verticalAlign=middle;whiteSpace=wrap;rounded=0;" parent="1" vertex="1">
          <mxGeometry x="2065" y="290" width="60" height="30" as="geometry" />
        </mxCell>
        <mxCell id="jIf5_SYDW_eX0Bh0rf3I-3" value="" style="rounded=0;orthogonalLoop=1;jettySize=auto;html=1;endArrow=halfCircle;endFill=0;endSize=6;strokeWidth=1;sketch=0;exitX=0.5;exitY=1;exitDx=0;exitDy=0;" parent="1" source="wbfZPtrRBLeSPW4oJf3d-62" target="jIf5_SYDW_eX0Bh0rf3I-5" edge="1">
          <mxGeometry relative="1" as="geometry">
            <mxPoint x="1640" y="315" as="sourcePoint" />
          </mxGeometry>
        </mxCell>
        <mxCell id="jIf5_SYDW_eX0Bh0rf3I-4" value="" style="rounded=0;orthogonalLoop=1;jettySize=auto;html=1;endArrow=oval;endFill=0;sketch=0;sourcePerimeterSpacing=0;targetPerimeterSpacing=0;endSize=10;exitX=0.5;exitY=0;exitDx=0;exitDy=0;" parent="1" source="jIf5_SYDW_eX0Bh0rf3I-1" target="jIf5_SYDW_eX0Bh0rf3I-5" edge="1">
          <mxGeometry relative="1" as="geometry">
            <mxPoint x="1640" y="325" as="sourcePoint" />
          </mxGeometry>
        </mxCell>
        <mxCell id="jIf5_SYDW_eX0Bh0rf3I-5" value="" style="ellipse;whiteSpace=wrap;html=1;align=center;aspect=fixed;fillColor=none;strokeColor=none;resizable=0;perimeter=centerPerimeter;rotatable=0;allowArrows=0;points=[];outlineConnect=1;" parent="1" vertex="1">
          <mxGeometry x="2055" y="300" width="10" height="10" as="geometry" />
        </mxCell>
        <mxCell id="jIf5_SYDW_eX0Bh0rf3I-10" value="Repozytorium użytkowników" style="html=1;dropTarget=0;whiteSpace=wrap;" parent="1" vertex="1">
          <mxGeometry x="1726" y="-10" width="180" height="90" as="geometry" />
        </mxCell>
        <mxCell id="jIf5_SYDW_eX0Bh0rf3I-11" value="" style="shape=module;jettyWidth=8;jettyHeight=4;" parent="jIf5_SYDW_eX0Bh0rf3I-10" vertex="1">
          <mxGeometry x="1" width="20" height="20" relative="1" as="geometry">
            <mxPoint x="-27" y="7" as="offset" />
          </mxGeometry>
        </mxCell>
        <mxCell id="wbfZPtrRBLeSPW4oJf3d-153" value="REST" style="text;html=1;align=center;verticalAlign=middle;whiteSpace=wrap;rounded=0;" parent="1" vertex="1">
          <mxGeometry x="997" y="-310" width="60" height="30" as="geometry" />
        </mxCell>
        <mxCell id="wbfZPtrRBLeSPW4oJf3d-139" value="użytkownik" style="text;html=1;align=center;verticalAlign=middle;whiteSpace=wrap;rounded=0;" parent="1" vertex="1">
          <mxGeometry x="1198" y="79" width="60" height="30" as="geometry" />
        </mxCell>
        <mxCell id="wbfZPtrRBLeSPW4oJf3d-85" value="Mapy" style="html=1;dropTarget=0;whiteSpace=wrap;" parent="1" vertex="1">
          <mxGeometry x="972" y="-510" width="180" height="90" as="geometry" />
        </mxCell>
        <mxCell id="wbfZPtrRBLeSPW4oJf3d-86" value="" style="shape=module;jettyWidth=8;jettyHeight=4;" parent="wbfZPtrRBLeSPW4oJf3d-85" vertex="1">
          <mxGeometry x="1" width="20" height="20" relative="1" as="geometry">
            <mxPoint x="-27" y="7" as="offset" />
          </mxGeometry>
        </mxCell>
        <mxCell id="wbfZPtrRBLeSPW4oJf3d-81" value="Moduł komunikacji" style="html=1;dropTarget=0;whiteSpace=wrap;" parent="1" vertex="1">
          <mxGeometry x="1630" y="300" width="180" height="90" as="geometry" />
        </mxCell>
        <mxCell id="wbfZPtrRBLeSPW4oJf3d-82" value="" style="shape=module;jettyWidth=8;jettyHeight=4;" parent="wbfZPtrRBLeSPW4oJf3d-81" vertex="1">
          <mxGeometry x="1" width="20" height="20" relative="1" as="geometry">
            <mxPoint x="-27" y="7" as="offset" />
          </mxGeometry>
        </mxCell>
        <mxCell id="mP5h9x_NBcfM7MQZ7Am3-3" value="Repozytorium powiadomień i komunikatów" style="html=1;dropTarget=0;whiteSpace=wrap;" parent="1" vertex="1">
          <mxGeometry x="1630" y="100" width="180" height="90" as="geometry" />
        </mxCell>
        <mxCell id="mP5h9x_NBcfM7MQZ7Am3-4" value="" style="shape=module;jettyWidth=8;jettyHeight=4;" parent="mP5h9x_NBcfM7MQZ7Am3-3" vertex="1">
          <mxGeometry x="1" width="20" height="20" relative="1" as="geometry">
            <mxPoint x="-27" y="7" as="offset" />
          </mxGeometry>
        </mxCell>
        <mxCell id="mP5h9x_NBcfM7MQZ7Am3-11" value="Zarządzanie wolontariuszami" style="html=1;dropTarget=0;whiteSpace=wrap;" parent="1" vertex="1">
          <mxGeometry x="1295" y="430" width="180" height="90" as="geometry" />
        </mxCell>
        <mxCell id="mP5h9x_NBcfM7MQZ7Am3-12" value="" style="shape=module;jettyWidth=8;jettyHeight=4;" parent="mP5h9x_NBcfM7MQZ7Am3-11" vertex="1">
          <mxGeometry x="1" width="20" height="20" relative="1" as="geometry">
            <mxPoint x="-27" y="7" as="offset" />
          </mxGeometry>
        </mxCell>
        <mxCell id="wbfZPtrRBLeSPW4oJf3d-154" value="Zarządzanie darczyńcami" style="html=1;dropTarget=0;whiteSpace=wrap;" parent="1" vertex="1">
          <mxGeometry x="1057" y="430" width="180" height="90" as="geometry" />
        </mxCell>
        <mxCell id="wbfZPtrRBLeSPW4oJf3d-155" value="" style="shape=module;jettyWidth=8;jettyHeight=4;" parent="wbfZPtrRBLeSPW4oJf3d-154" vertex="1">
          <mxGeometry x="1" width="20" height="20" relative="1" as="geometry">
            <mxPoint x="-27" y="7" as="offset" />
          </mxGeometry>
        </mxCell>
        <mxCell id="jIf5_SYDW_eX0Bh0rf3I-14" value="Repozytorium zasobów" style="html=1;dropTarget=0;whiteSpace=wrap;" parent="1" vertex="1">
          <mxGeometry x="1810" y="-130" width="180" height="90" as="geometry" />
        </mxCell>
        <mxCell id="jIf5_SYDW_eX0Bh0rf3I-15" value="" style="shape=module;jettyWidth=8;jettyHeight=4;" parent="jIf5_SYDW_eX0Bh0rf3I-14" vertex="1">
          <mxGeometry x="1" width="20" height="20" relative="1" as="geometry">
            <mxPoint x="-27" y="7" as="offset" />
          </mxGeometry>
        </mxCell>
        <mxCell id="jIf5_SYDW_eX0Bh0rf3I-16" value="" style="rounded=0;orthogonalLoop=1;jettySize=auto;html=1;endArrow=halfCircle;endFill=0;endSize=6;strokeWidth=1;sketch=0;exitX=0.5;exitY=1;exitDx=0;exitDy=0;" parent="1" source="wbfZPtrRBLeSPW4oJf3d-87" target="jIf5_SYDW_eX0Bh0rf3I-18" edge="1">
          <mxGeometry relative="1" as="geometry">
            <mxPoint x="1310" y="-105" as="sourcePoint" />
          </mxGeometry>
        </mxCell>
        <mxCell id="jIf5_SYDW_eX0Bh0rf3I-17" value="" style="rounded=0;orthogonalLoop=1;jettySize=auto;html=1;endArrow=oval;endFill=0;sketch=0;sourcePerimeterSpacing=0;targetPerimeterSpacing=0;endSize=10;exitX=0.25;exitY=0;exitDx=0;exitDy=0;" parent="1" source="wbfZPtrRBLeSPW4oJf3d-68" target="jIf5_SYDW_eX0Bh0rf3I-18" edge="1">
          <mxGeometry relative="1" as="geometry">
            <mxPoint x="1270" y="-105" as="sourcePoint" />
          </mxGeometry>
        </mxCell>
        <mxCell id="jIf5_SYDW_eX0Bh0rf3I-18" value="" style="ellipse;whiteSpace=wrap;html=1;align=center;aspect=fixed;fillColor=none;strokeColor=none;resizable=0;perimeter=centerPerimeter;rotatable=0;allowArrows=0;points=[];outlineConnect=1;" parent="1" vertex="1">
          <mxGeometry x="1022" y="-270" width="10" height="10" as="geometry" />
        </mxCell>
        <mxCell id="mP5h9x_NBcfM7MQZ7Am3-1" value="Repozytorium zadań" style="html=1;dropTarget=0;whiteSpace=wrap;" parent="1" vertex="1">
          <mxGeometry x="2015" y="-110" width="180" height="90" as="geometry" />
        </mxCell>
        <mxCell id="mP5h9x_NBcfM7MQZ7Am3-2" value="" style="shape=module;jettyWidth=8;jettyHeight=4;" parent="mP5h9x_NBcfM7MQZ7Am3-1" vertex="1">
          <mxGeometry x="1" width="20" height="20" relative="1" as="geometry">
            <mxPoint x="-27" y="7" as="offset" />
          </mxGeometry>
        </mxCell>
        <mxCell id="jIf5_SYDW_eX0Bh0rf3I-12" value="Repozytorium zgłoszeń" style="html=1;dropTarget=0;whiteSpace=wrap;" parent="1" vertex="1">
          <mxGeometry x="2210" y="-50" width="180" height="90" as="geometry" />
        </mxCell>
        <mxCell id="jIf5_SYDW_eX0Bh0rf3I-13" value="" style="shape=module;jettyWidth=8;jettyHeight=4;" parent="jIf5_SYDW_eX0Bh0rf3I-12" vertex="1">
          <mxGeometry x="1" width="20" height="20" relative="1" as="geometry">
            <mxPoint x="-27" y="7" as="offset" />
          </mxGeometry>
        </mxCell>
        <mxCell id="mP5h9x_NBcfM7MQZ7Am3-5" value="Repozytorium danych geolokalizacyjnych" style="html=1;dropTarget=0;whiteSpace=wrap;" parent="1" vertex="1">
          <mxGeometry x="2345" y="89" width="180" height="90" as="geometry" />
        </mxCell>
        <mxCell id="mP5h9x_NBcfM7MQZ7Am3-6" value="" style="shape=module;jettyWidth=8;jettyHeight=4;" parent="mP5h9x_NBcfM7MQZ7Am3-5" vertex="1">
          <mxGeometry x="1" width="20" height="20" relative="1" as="geometry">
            <mxPoint x="-27" y="7" as="offset" />
          </mxGeometry>
        </mxCell>
        <mxCell id="mP5h9x_NBcfM7MQZ7Am3-14" value="" style="endArrow=block;endSize=16;endFill=0;html=1;rounded=0;entryX=0.75;entryY=1;entryDx=0;entryDy=0;exitX=0.5;exitY=0;exitDx=0;exitDy=0;" parent="1" source="mP5h9x_NBcfM7MQZ7Am3-11" target="wbfZPtrRBLeSPW4oJf3d-83" edge="1">
          <mxGeometry width="160" relative="1" as="geometry">
            <mxPoint x="1157" y="360" as="sourcePoint" />
            <mxPoint x="1210" y="290" as="targetPoint" />
          </mxGeometry>
        </mxCell>
        <mxCell id="mP5h9x_NBcfM7MQZ7Am3-16" value="" style="endArrow=block;endSize=16;endFill=0;html=1;rounded=0;entryX=0;entryY=0.25;entryDx=0;entryDy=0;exitX=1;exitY=0.5;exitDx=0;exitDy=0;" parent="1" source="mP5h9x_NBcfM7MQZ7Am3-3" target="wbfZPtrRBLeSPW4oJf3d-62" edge="1">
          <mxGeometry width="160" relative="1" as="geometry">
            <mxPoint x="1860" y="164" as="sourcePoint" />
            <mxPoint x="1842.5" y="150" as="targetPoint" />
          </mxGeometry>
        </mxCell>
        <mxCell id="mP5h9x_NBcfM7MQZ7Am3-17" value="" style="endArrow=block;endSize=16;endFill=0;html=1;rounded=0;entryX=0.25;entryY=0;entryDx=0;entryDy=0;exitX=1;exitY=0.5;exitDx=0;exitDy=0;" parent="1" source="jIf5_SYDW_eX0Bh0rf3I-10" target="wbfZPtrRBLeSPW4oJf3d-62" edge="1">
          <mxGeometry width="160" relative="1" as="geometry">
            <mxPoint x="1252" y="240" as="sourcePoint" />
            <mxPoint x="1305" y="170" as="targetPoint" />
          </mxGeometry>
        </mxCell>
        <mxCell id="mP5h9x_NBcfM7MQZ7Am3-18" value="" style="endArrow=block;endSize=16;endFill=0;html=1;rounded=0;entryX=0.5;entryY=0;entryDx=0;entryDy=0;exitX=0.75;exitY=1;exitDx=0;exitDy=0;" parent="1" source="jIf5_SYDW_eX0Bh0rf3I-14" target="wbfZPtrRBLeSPW4oJf3d-62" edge="1">
          <mxGeometry width="160" relative="1" as="geometry">
            <mxPoint x="1990" y="-30" as="sourcePoint" />
            <mxPoint x="1315" y="180" as="targetPoint" />
          </mxGeometry>
        </mxCell>
        <mxCell id="mP5h9x_NBcfM7MQZ7Am3-19" value="" style="endArrow=block;endSize=16;endFill=0;html=1;rounded=0;entryX=0.75;entryY=0;entryDx=0;entryDy=0;exitX=0.5;exitY=1;exitDx=0;exitDy=0;" parent="1" source="mP5h9x_NBcfM7MQZ7Am3-1" target="wbfZPtrRBLeSPW4oJf3d-62" edge="1">
          <mxGeometry width="160" relative="1" as="geometry">
            <mxPoint x="2090" y="-20" as="sourcePoint" />
            <mxPoint x="1325" y="190" as="targetPoint" />
          </mxGeometry>
        </mxCell>
        <mxCell id="mP5h9x_NBcfM7MQZ7Am3-20" value="" style="endArrow=block;endSize=16;endFill=0;html=1;rounded=0;entryX=1;entryY=0.5;entryDx=0;entryDy=0;exitX=0;exitY=0.5;exitDx=0;exitDy=0;" parent="1" source="mP5h9x_NBcfM7MQZ7Am3-5" target="wbfZPtrRBLeSPW4oJf3d-62" edge="1">
          <mxGeometry width="160" relative="1" as="geometry">
            <mxPoint x="2240" y="240" as="sourcePoint" />
            <mxPoint x="1335" y="200" as="targetPoint" />
          </mxGeometry>
        </mxCell>
        <mxCell id="mP5h9x_NBcfM7MQZ7Am3-21" value="" style="endArrow=block;endSize=16;endFill=0;html=1;rounded=0;entryX=1;entryY=0;entryDx=0;entryDy=0;exitX=0.5;exitY=1;exitDx=0;exitDy=0;" parent="1" source="jIf5_SYDW_eX0Bh0rf3I-12" target="wbfZPtrRBLeSPW4oJf3d-62" edge="1">
          <mxGeometry width="160" relative="1" as="geometry">
            <mxPoint x="2180" y="20" as="sourcePoint" />
            <mxPoint x="1345" y="210" as="targetPoint" />
          </mxGeometry>
        </mxCell>
        <mxCell id="mP5h9x_NBcfM7MQZ7Am3-22" value="" style="rounded=0;orthogonalLoop=1;jettySize=auto;html=1;endArrow=halfCircle;endFill=0;endSize=6;strokeWidth=1;sketch=0;exitX=0.5;exitY=1;exitDx=0;exitDy=0;" parent="1" source="wbfZPtrRBLeSPW4oJf3d-66" target="mP5h9x_NBcfM7MQZ7Am3-24" edge="1">
          <mxGeometry relative="1" as="geometry">
            <mxPoint x="1360" y="-265" as="sourcePoint" />
          </mxGeometry>
        </mxCell>
        <mxCell id="mP5h9x_NBcfM7MQZ7Am3-23" value="" style="rounded=0;orthogonalLoop=1;jettySize=auto;html=1;endArrow=oval;endFill=0;sketch=0;sourcePerimeterSpacing=0;targetPerimeterSpacing=0;endSize=10;exitX=0.5;exitY=0;exitDx=0;exitDy=0;" parent="1" source="wbfZPtrRBLeSPW4oJf3d-79" target="mP5h9x_NBcfM7MQZ7Am3-24" edge="1">
          <mxGeometry relative="1" as="geometry">
            <mxPoint x="1320" y="-265" as="sourcePoint" />
          </mxGeometry>
        </mxCell>
        <mxCell id="mP5h9x_NBcfM7MQZ7Am3-24" value="" style="ellipse;whiteSpace=wrap;html=1;align=center;aspect=fixed;fillColor=none;strokeColor=none;resizable=0;perimeter=centerPerimeter;rotatable=0;allowArrows=0;points=[];outlineConnect=1;" parent="1" vertex="1">
          <mxGeometry x="1365" y="-270" width="10" height="10" as="geometry" />
        </mxCell>
        <mxCell id="mP5h9x_NBcfM7MQZ7Am3-25" value="" style="rounded=0;orthogonalLoop=1;jettySize=auto;html=1;endArrow=halfCircle;endFill=0;endSize=6;strokeWidth=1;sketch=0;exitX=1;exitY=0.5;exitDx=0;exitDy=0;" parent="1" source="wbfZPtrRBLeSPW4oJf3d-66" target="mP5h9x_NBcfM7MQZ7Am3-27" edge="1">
          <mxGeometry relative="1" as="geometry">
            <mxPoint x="1570" y="-155" as="sourcePoint" />
            <Array as="points">
              <mxPoint x="2300" y="-370" />
            </Array>
          </mxGeometry>
        </mxCell>
        <mxCell id="mP5h9x_NBcfM7MQZ7Am3-26" value="" style="rounded=0;orthogonalLoop=1;jettySize=auto;html=1;endArrow=oval;endFill=0;sketch=0;sourcePerimeterSpacing=0;targetPerimeterSpacing=0;endSize=10;exitX=0.5;exitY=0;exitDx=0;exitDy=0;" parent="1" source="jIf5_SYDW_eX0Bh0rf3I-12" target="mP5h9x_NBcfM7MQZ7Am3-27" edge="1">
          <mxGeometry relative="1" as="geometry">
            <mxPoint x="1530" y="-155" as="sourcePoint" />
          </mxGeometry>
        </mxCell>
        <mxCell id="mP5h9x_NBcfM7MQZ7Am3-27" value="" style="ellipse;whiteSpace=wrap;html=1;align=center;aspect=fixed;fillColor=none;strokeColor=none;resizable=0;perimeter=centerPerimeter;rotatable=0;allowArrows=0;points=[];outlineConnect=1;" parent="1" vertex="1">
          <mxGeometry x="2295" y="-100" width="10" height="10" as="geometry" />
        </mxCell>
        <mxCell id="mP5h9x_NBcfM7MQZ7Am3-28" value="" style="rounded=0;orthogonalLoop=1;jettySize=auto;html=1;endArrow=halfCircle;endFill=0;endSize=6;strokeWidth=1;sketch=0;exitX=0.5;exitY=1;exitDx=0;exitDy=0;" parent="1" source="wbfZPtrRBLeSPW4oJf3d-79" target="mP5h9x_NBcfM7MQZ7Am3-30" edge="1">
          <mxGeometry relative="1" as="geometry">
            <mxPoint x="1330" y="-15" as="sourcePoint" />
          </mxGeometry>
        </mxCell>
        <mxCell id="mP5h9x_NBcfM7MQZ7Am3-29" value="" style="rounded=0;orthogonalLoop=1;jettySize=auto;html=1;endArrow=oval;endFill=0;sketch=0;sourcePerimeterSpacing=0;targetPerimeterSpacing=0;endSize=10;exitX=0.5;exitY=0;exitDx=0;exitDy=0;" parent="1" source="wbfZPtrRBLeSPW4oJf3d-105" target="mP5h9x_NBcfM7MQZ7Am3-30" edge="1">
          <mxGeometry relative="1" as="geometry">
            <mxPoint x="1330" y="-20" as="sourcePoint" />
          </mxGeometry>
        </mxCell>
        <mxCell id="mP5h9x_NBcfM7MQZ7Am3-30" value="" style="ellipse;whiteSpace=wrap;html=1;align=center;aspect=fixed;fillColor=none;strokeColor=none;resizable=0;perimeter=centerPerimeter;rotatable=0;allowArrows=0;points=[];outlineConnect=1;" parent="1" vertex="1">
          <mxGeometry x="1365" y="-70" width="10" height="10" as="geometry" />
        </mxCell>
        <mxCell id="mP5h9x_NBcfM7MQZ7Am3-37" value="" style="rounded=0;orthogonalLoop=1;jettySize=auto;html=1;endArrow=halfCircle;endFill=0;endSize=6;strokeWidth=1;sketch=0;exitX=1;exitY=0.5;exitDx=0;exitDy=0;" parent="1" source="wbfZPtrRBLeSPW4oJf3d-105" target="mP5h9x_NBcfM7MQZ7Am3-39" edge="1">
          <mxGeometry relative="1" as="geometry">
            <mxPoint x="1500" y="50" as="sourcePoint" />
          </mxGeometry>
        </mxCell>
        <mxCell id="mP5h9x_NBcfM7MQZ7Am3-39" value="" style="ellipse;whiteSpace=wrap;html=1;align=center;aspect=fixed;fillColor=none;strokeColor=none;resizable=0;perimeter=centerPerimeter;rotatable=0;allowArrows=0;points=[];outlineConnect=1;" parent="1" vertex="1">
          <mxGeometry x="1495" y="30" width="10" height="10" as="geometry" />
        </mxCell>
        <mxCell id="mP5h9x_NBcfM7MQZ7Am3-49" value="" style="rounded=0;orthogonalLoop=1;jettySize=auto;html=1;endArrow=halfCircle;endFill=0;endSize=6;strokeWidth=1;sketch=0;exitX=1;exitY=0.25;exitDx=0;exitDy=0;" parent="1" source="wbfZPtrRBLeSPW4oJf3d-79" target="mP5h9x_NBcfM7MQZ7Am3-51" edge="1">
          <mxGeometry relative="1" as="geometry">
            <mxPoint x="1640" y="-65" as="sourcePoint" />
            <Array as="points">
              <mxPoint x="2105" y="-187" />
            </Array>
          </mxGeometry>
        </mxCell>
        <mxCell id="mP5h9x_NBcfM7MQZ7Am3-50" value="" style="rounded=0;orthogonalLoop=1;jettySize=auto;html=1;endArrow=oval;endFill=0;sketch=0;sourcePerimeterSpacing=0;targetPerimeterSpacing=0;endSize=10;exitX=0.5;exitY=0;exitDx=0;exitDy=0;" parent="1" source="mP5h9x_NBcfM7MQZ7Am3-1" target="mP5h9x_NBcfM7MQZ7Am3-51" edge="1">
          <mxGeometry relative="1" as="geometry">
            <mxPoint x="1600" y="-65" as="sourcePoint" />
          </mxGeometry>
        </mxCell>
        <mxCell id="mP5h9x_NBcfM7MQZ7Am3-51" value="" style="ellipse;whiteSpace=wrap;html=1;align=center;aspect=fixed;fillColor=none;strokeColor=none;resizable=0;perimeter=centerPerimeter;rotatable=0;allowArrows=0;points=[];outlineConnect=1;" parent="1" vertex="1">
          <mxGeometry x="2100" y="-160" width="10" height="10" as="geometry" />
        </mxCell>
        <mxCell id="qcpjLhu1hjKyBAtD3c7Q-3" value="" style="ellipse;whiteSpace=wrap;html=1;align=center;aspect=fixed;fillColor=none;strokeColor=none;resizable=0;perimeter=centerPerimeter;rotatable=0;allowArrows=0;points=[];outlineConnect=1;" parent="1" vertex="1">
          <mxGeometry x="1470" y="-150" width="10" height="10" as="geometry" />
        </mxCell>
        <mxCell id="qcpjLhu1hjKyBAtD3c7Q-4" value="" style="rounded=0;orthogonalLoop=1;jettySize=auto;html=1;endArrow=halfCircle;endFill=0;endSize=6;strokeWidth=1;sketch=0;exitX=0.5;exitY=1;exitDx=0;exitDy=0;" parent="1" source="KYm69CL8cMX49H1j501y-46" edge="1">
          <mxGeometry relative="1" as="geometry">
            <mxPoint x="1730" y="-65" as="sourcePoint" />
            <mxPoint x="1370" y="134" as="targetPoint" />
          </mxGeometry>
        </mxCell>
        <mxCell id="qcpjLhu1hjKyBAtD3c7Q-7" value="" style="rounded=0;orthogonalLoop=1;jettySize=auto;html=1;endArrow=halfCircle;endFill=0;endSize=6;strokeWidth=1;sketch=0;exitX=0.5;exitY=0;exitDx=0;exitDy=0;" parent="1" source="wbfZPtrRBLeSPW4oJf3d-81" target="qcpjLhu1hjKyBAtD3c7Q-9" edge="1">
          <mxGeometry relative="1" as="geometry">
            <mxPoint x="1700" y="280" as="sourcePoint" />
          </mxGeometry>
        </mxCell>
        <mxCell id="qcpjLhu1hjKyBAtD3c7Q-8" value="" style="rounded=0;orthogonalLoop=1;jettySize=auto;html=1;endArrow=oval;endFill=0;sketch=0;sourcePerimeterSpacing=0;targetPerimeterSpacing=0;endSize=10;exitX=0.5;exitY=1;exitDx=0;exitDy=0;" parent="1" source="mP5h9x_NBcfM7MQZ7Am3-3" target="qcpjLhu1hjKyBAtD3c7Q-9" edge="1">
          <mxGeometry relative="1" as="geometry">
            <mxPoint x="1566" y="164" as="sourcePoint" />
          </mxGeometry>
        </mxCell>
        <mxCell id="qcpjLhu1hjKyBAtD3c7Q-9" value="" style="ellipse;whiteSpace=wrap;html=1;align=center;aspect=fixed;fillColor=none;strokeColor=none;resizable=0;perimeter=centerPerimeter;rotatable=0;allowArrows=0;points=[];outlineConnect=1;" parent="1" vertex="1">
          <mxGeometry x="1715" y="240" width="10" height="10" as="geometry" />
        </mxCell>
        <mxCell id="qcpjLhu1hjKyBAtD3c7Q-10" value="użytkownik" style="text;html=1;align=center;verticalAlign=middle;whiteSpace=wrap;rounded=0;" parent="1" vertex="1">
          <mxGeometry x="1390" y="119" width="60" height="30" as="geometry" />
        </mxCell>
        <mxCell id="qcpjLhu1hjKyBAtD3c7Q-11" value="powiadomienie" style="text;html=1;align=center;verticalAlign=middle;whiteSpace=wrap;rounded=0;" parent="1" vertex="1">
          <mxGeometry x="1475" y="40" width="60" height="30" as="geometry" />
        </mxCell>
        <mxCell id="qcpjLhu1hjKyBAtD3c7Q-12" value="powiadomienie" style="text;html=1;align=center;verticalAlign=middle;whiteSpace=wrap;rounded=0;" parent="1" vertex="1">
          <mxGeometry x="1475" y="-150" width="60" height="30" as="geometry" />
        </mxCell>
        <mxCell id="qcpjLhu1hjKyBAtD3c7Q-13" value="" style="rounded=0;orthogonalLoop=1;jettySize=auto;html=1;endArrow=halfCircle;endFill=0;endSize=6;strokeWidth=1;sketch=0;exitX=0;exitY=0.75;exitDx=0;exitDy=0;" parent="1" source="wbfZPtrRBLeSPW4oJf3d-68" target="qcpjLhu1hjKyBAtD3c7Q-15" edge="1">
          <mxGeometry relative="1" as="geometry">
            <mxPoint x="1510" y="115" as="sourcePoint" />
            <Array as="points">
              <mxPoint x="850" y="-142" />
              <mxPoint x="850" y="550" />
              <mxPoint x="1720" y="550" />
            </Array>
          </mxGeometry>
        </mxCell>
        <mxCell id="qcpjLhu1hjKyBAtD3c7Q-14" value="" style="rounded=0;orthogonalLoop=1;jettySize=auto;html=1;endArrow=oval;endFill=0;sketch=0;sourcePerimeterSpacing=0;targetPerimeterSpacing=0;endSize=10;exitX=0.5;exitY=1;exitDx=0;exitDy=0;" parent="1" source="wbfZPtrRBLeSPW4oJf3d-81" target="qcpjLhu1hjKyBAtD3c7Q-15" edge="1">
          <mxGeometry relative="1" as="geometry">
            <mxPoint x="1540" y="515" as="sourcePoint" />
          </mxGeometry>
        </mxCell>
        <mxCell id="qcpjLhu1hjKyBAtD3c7Q-15" value="" style="ellipse;whiteSpace=wrap;html=1;align=center;aspect=fixed;fillColor=none;strokeColor=none;resizable=0;perimeter=centerPerimeter;rotatable=0;allowArrows=0;points=[];outlineConnect=1;" parent="1" vertex="1">
          <mxGeometry x="1715" y="440" width="10" height="10" as="geometry" />
        </mxCell>
        <mxCell id="qcpjLhu1hjKyBAtD3c7Q-16" value="komunikat" style="text;html=1;align=center;verticalAlign=middle;whiteSpace=wrap;rounded=0;" parent="1" vertex="1">
          <mxGeometry x="1740" y="430" width="60" height="30" as="geometry" />
        </mxCell>
        <mxCell id="qcpjLhu1hjKyBAtD3c7Q-20" value="użytkownik" style="text;html=1;align=center;verticalAlign=middle;whiteSpace=wrap;rounded=0;" parent="1" vertex="1">
          <mxGeometry x="1550" y="360" width="60" height="30" as="geometry" />
        </mxCell>
        <mxCell id="qcpjLhu1hjKyBAtD3c7Q-21" value="zasób" style="text;html=1;align=center;verticalAlign=middle;whiteSpace=wrap;rounded=0;" parent="1" vertex="1">
          <mxGeometry x="1380" y="-80" width="60" height="30" as="geometry" />
        </mxCell>
        <mxCell id="qcpjLhu1hjKyBAtD3c7Q-27" value="" style="ellipse;whiteSpace=wrap;html=1;align=center;aspect=fixed;fillColor=none;strokeColor=none;resizable=0;perimeter=centerPerimeter;rotatable=0;allowArrows=0;points=[];outlineConnect=1;" parent="1" vertex="1">
          <mxGeometry x="1241" y="-70" width="10" height="10" as="geometry" />
        </mxCell>
        <mxCell id="qcpjLhu1hjKyBAtD3c7Q-28" value="użytkownik" style="text;html=1;align=center;verticalAlign=middle;whiteSpace=wrap;rounded=0;" parent="1" vertex="1">
          <mxGeometry x="1495" y="-100" width="60" height="30" as="geometry" />
        </mxCell>
        <mxCell id="W1Rj_YFHhmhunfFxvikt-1" value="zadanie" style="text;html=1;align=center;verticalAlign=middle;whiteSpace=wrap;rounded=0;" parent="1" vertex="1">
          <mxGeometry x="1390" y="-280" width="60" height="30" as="geometry" />
        </mxCell>
        <mxCell id="KYm69CL8cMX49H1j501y-2" value="" style="rounded=0;orthogonalLoop=1;jettySize=auto;html=1;endArrow=halfCircle;endFill=0;endSize=6;strokeWidth=1;sketch=0;exitX=0;exitY=0.25;exitDx=0;exitDy=0;" parent="1" source="wbfZPtrRBLeSPW4oJf3d-68" target="KYm69CL8cMX49H1j501y-4" edge="1">
          <mxGeometry relative="1" as="geometry">
            <mxPoint x="820" y="-235" as="sourcePoint" />
          </mxGeometry>
        </mxCell>
        <mxCell id="KYm69CL8cMX49H1j501y-3" value="" style="rounded=0;orthogonalLoop=1;jettySize=auto;html=1;endArrow=oval;endFill=0;sketch=0;sourcePerimeterSpacing=0;targetPerimeterSpacing=0;endSize=10;exitX=1;exitY=0.5;exitDx=0;exitDy=0;" parent="1" source="wbfZPtrRBLeSPW4oJf3d-168" target="KYm69CL8cMX49H1j501y-4" edge="1">
          <mxGeometry relative="1" as="geometry">
            <mxPoint x="780" y="-235" as="sourcePoint" />
          </mxGeometry>
        </mxCell>
        <mxCell id="KYm69CL8cMX49H1j501y-4" value="" style="ellipse;whiteSpace=wrap;html=1;align=center;aspect=fixed;fillColor=none;strokeColor=none;resizable=0;perimeter=centerPerimeter;rotatable=0;allowArrows=0;points=[];outlineConnect=1;" parent="1" vertex="1">
          <mxGeometry x="860" y="-190" width="10" height="10" as="geometry" />
        </mxCell>
        <mxCell id="KYm69CL8cMX49H1j501y-6" value="" style="rounded=0;orthogonalLoop=1;jettySize=auto;html=1;endArrow=halfCircle;endFill=0;endSize=6;strokeWidth=1;sketch=0;exitX=0.5;exitY=1;exitDx=0;exitDy=0;" parent="1" source="wbfZPtrRBLeSPW4oJf3d-168" target="KYm69CL8cMX49H1j501y-8" edge="1">
          <mxGeometry relative="1" as="geometry">
            <mxPoint x="760" y="-40" as="sourcePoint" />
            <Array as="points">
              <mxPoint x="710" y="600" />
              <mxPoint x="1910" y="600" />
            </Array>
          </mxGeometry>
        </mxCell>
        <mxCell id="KYm69CL8cMX49H1j501y-7" value="" style="rounded=0;orthogonalLoop=1;jettySize=auto;html=1;endArrow=oval;endFill=0;sketch=0;sourcePerimeterSpacing=0;targetPerimeterSpacing=0;endSize=10;exitX=0;exitY=0.5;exitDx=0;exitDy=0;" parent="1" source="wbfZPtrRBLeSPW4oJf3d-62" target="KYm69CL8cMX49H1j501y-8" edge="1">
          <mxGeometry relative="1" as="geometry">
            <mxPoint x="1890" y="270" as="sourcePoint" />
          </mxGeometry>
        </mxCell>
        <mxCell id="KYm69CL8cMX49H1j501y-8" value="" style="ellipse;whiteSpace=wrap;html=1;align=center;aspect=fixed;fillColor=none;strokeColor=none;resizable=0;perimeter=centerPerimeter;rotatable=0;allowArrows=0;points=[];outlineConnect=1;" parent="1" vertex="1">
          <mxGeometry x="1906" y="210" width="10" height="10" as="geometry" />
        </mxCell>
        <mxCell id="KYm69CL8cMX49H1j501y-9" value="tworzenie raportów" style="text;html=1;align=center;verticalAlign=middle;whiteSpace=wrap;rounded=0;" parent="1" vertex="1">
          <mxGeometry x="835" y="-230" width="60" height="30" as="geometry" />
        </mxCell>
        <mxCell id="KYm69CL8cMX49H1j501y-12" value="" style="rounded=0;orthogonalLoop=1;jettySize=auto;html=1;endArrow=halfCircle;endFill=0;endSize=6;strokeWidth=1;sketch=0;exitX=0.444;exitY=0;exitDx=0;exitDy=0;exitPerimeter=0;" parent="1" source="wbfZPtrRBLeSPW4oJf3d-68" target="KYm69CL8cMX49H1j501y-14" edge="1">
          <mxGeometry relative="1" as="geometry">
            <mxPoint x="1010" y="-325" as="sourcePoint" />
          </mxGeometry>
        </mxCell>
        <mxCell id="KYm69CL8cMX49H1j501y-13" value="" style="rounded=0;orthogonalLoop=1;jettySize=auto;html=1;endArrow=oval;endFill=0;sketch=0;sourcePerimeterSpacing=0;targetPerimeterSpacing=0;endSize=10;exitX=0.5;exitY=1;exitDx=0;exitDy=0;" parent="1" source="wbfZPtrRBLeSPW4oJf3d-85" target="KYm69CL8cMX49H1j501y-14" edge="1">
          <mxGeometry relative="1" as="geometry">
            <mxPoint x="970" y="-325" as="sourcePoint" />
          </mxGeometry>
        </mxCell>
        <mxCell id="KYm69CL8cMX49H1j501y-14" value="" style="ellipse;whiteSpace=wrap;html=1;align=center;aspect=fixed;fillColor=none;strokeColor=none;resizable=0;perimeter=centerPerimeter;rotatable=0;allowArrows=0;points=[];outlineConnect=1;" parent="1" vertex="1">
          <mxGeometry x="1057" y="-370" width="10" height="10" as="geometry" />
        </mxCell>
        <mxCell id="KYm69CL8cMX49H1j501y-15" value="JpaRepository" style="text;html=1;align=center;verticalAlign=middle;whiteSpace=wrap;rounded=0;" parent="1" vertex="1">
          <mxGeometry x="2460" y="30" width="80" height="30" as="geometry" />
        </mxCell>
        <mxCell id="KYm69CL8cMX49H1j501y-16" value="dane" style="text;html=1;align=center;verticalAlign=middle;whiteSpace=wrap;rounded=0;" parent="1" vertex="1">
          <mxGeometry x="1067" y="-380" width="60" height="30" as="geometry" />
        </mxCell>
        <mxCell id="KYm69CL8cMX49H1j501y-18" value="" style="rounded=0;orthogonalLoop=1;jettySize=auto;html=1;endArrow=oval;endFill=0;sketch=0;sourcePerimeterSpacing=0;targetPerimeterSpacing=0;endSize=10;exitX=0.5;exitY=0;exitDx=0;exitDy=0;" parent="1" source="wbfZPtrRBLeSPW4oJf3d-83" edge="1">
          <mxGeometry relative="1" as="geometry">
            <mxPoint x="1275" y="245" as="sourcePoint" />
            <mxPoint x="1265" y="210" as="targetPoint" />
          </mxGeometry>
        </mxCell>
        <mxCell id="KYm69CL8cMX49H1j501y-19" value="użytkownik" style="text;html=1;align=center;verticalAlign=middle;whiteSpace=wrap;rounded=0;" parent="1" vertex="1">
          <mxGeometry x="1198" y="200" width="60" height="30" as="geometry" />
        </mxCell>
        <mxCell id="KYm69CL8cMX49H1j501y-20" value="" style="endArrow=open;endSize=12;dashed=1;html=1;rounded=0;exitX=0.813;exitY=0.661;exitDx=0;exitDy=0;exitPerimeter=0;" parent="1" source="KYm69CL8cMX49H1j501y-21" edge="1">
          <mxGeometry width="160" relative="1" as="geometry">
            <mxPoint x="1380" y="170" as="sourcePoint" />
            <mxPoint x="1260" y="200" as="targetPoint" />
            <Array as="points" />
          </mxGeometry>
        </mxCell>
        <mxCell id="KYm69CL8cMX49H1j501y-22" value="" style="rounded=0;orthogonalLoop=1;jettySize=auto;html=1;endArrow=halfCircle;endFill=0;endSize=6;strokeWidth=1;sketch=0;exitX=1;exitY=0.5;exitDx=0;exitDy=0;" parent="1" source="wbfZPtrRBLeSPW4oJf3d-64" target="KYm69CL8cMX49H1j501y-21" edge="1">
          <mxGeometry relative="1" as="geometry">
            <mxPoint x="1156" y="125" as="sourcePoint" />
            <mxPoint x="1228" y="125" as="targetPoint" />
          </mxGeometry>
        </mxCell>
        <mxCell id="KYm69CL8cMX49H1j501y-21" value="" style="ellipse;whiteSpace=wrap;html=1;align=center;aspect=fixed;fillColor=none;strokeColor=none;resizable=0;perimeter=centerPerimeter;rotatable=0;allowArrows=0;points=[];outlineConnect=1;" parent="1" vertex="1">
          <mxGeometry x="1223" y="120" width="10" height="10" as="geometry" />
        </mxCell>
        <mxCell id="KYm69CL8cMX49H1j501y-28" value="" style="rounded=0;orthogonalLoop=1;jettySize=auto;html=1;endArrow=oval;endFill=0;sketch=0;sourcePerimeterSpacing=0;targetPerimeterSpacing=0;endSize=10;exitX=0.25;exitY=0;exitDx=0;exitDy=0;" parent="1" source="wbfZPtrRBLeSPW4oJf3d-81" edge="1">
          <mxGeometry relative="1" as="geometry">
            <mxPoint x="1490" y="335" as="sourcePoint" />
            <mxPoint x="1675" y="250" as="targetPoint" />
          </mxGeometry>
        </mxCell>
        <mxCell id="KYm69CL8cMX49H1j501y-31" value="" style="rounded=0;orthogonalLoop=1;jettySize=auto;html=1;endArrow=halfCircle;endFill=0;endSize=6;strokeWidth=1;sketch=0;exitX=1;exitY=0.5;exitDx=0;exitDy=0;entryX=0.177;entryY=0.218;entryDx=0;entryDy=0;entryPerimeter=0;" parent="1" source="wbfZPtrRBLeSPW4oJf3d-85" target="KYm69CL8cMX49H1j501y-33" edge="1">
          <mxGeometry relative="1" as="geometry">
            <mxPoint x="1770" y="-460" as="sourcePoint" />
            <Array as="points">
              <mxPoint x="2435" y="-460" />
            </Array>
          </mxGeometry>
        </mxCell>
        <mxCell id="KYm69CL8cMX49H1j501y-32" value="" style="rounded=0;orthogonalLoop=1;jettySize=auto;html=1;endArrow=oval;endFill=0;sketch=0;sourcePerimeterSpacing=0;targetPerimeterSpacing=0;endSize=10;exitX=0.5;exitY=0;exitDx=0;exitDy=0;" parent="1" source="mP5h9x_NBcfM7MQZ7Am3-5" target="KYm69CL8cMX49H1j501y-33" edge="1">
          <mxGeometry relative="1" as="geometry">
            <mxPoint x="1780" y="-335" as="sourcePoint" />
          </mxGeometry>
        </mxCell>
        <mxCell id="KYm69CL8cMX49H1j501y-33" value="" style="ellipse;whiteSpace=wrap;html=1;align=center;aspect=fixed;fillColor=none;strokeColor=none;resizable=0;perimeter=centerPerimeter;rotatable=0;allowArrows=0;points=[];outlineConnect=1;" parent="1" vertex="1">
          <mxGeometry x="2430" y="40" width="10" height="10" as="geometry" />
        </mxCell>
        <mxCell id="KYm69CL8cMX49H1j501y-34" value="JpaRepository" style="text;html=1;align=center;verticalAlign=middle;whiteSpace=wrap;rounded=0;" parent="1" vertex="1">
          <mxGeometry x="2320" y="-110" width="80" height="30" as="geometry" />
        </mxCell>
        <mxCell id="KYm69CL8cMX49H1j501y-35" value="JpaRepository" style="text;html=1;align=center;verticalAlign=middle;whiteSpace=wrap;rounded=0;" parent="1" vertex="1">
          <mxGeometry x="2130" y="-170" width="80" height="30" as="geometry" />
        </mxCell>
        <mxCell id="KYm69CL8cMX49H1j501y-37" value="JpaRepository" style="text;html=1;align=center;verticalAlign=middle;whiteSpace=wrap;rounded=0;" parent="1" vertex="1">
          <mxGeometry x="1820" y="190" width="80" height="30" as="geometry" />
        </mxCell>
        <mxCell id="KYm69CL8cMX49H1j501y-38" value="JpaRepository" style="text;html=1;align=center;verticalAlign=middle;whiteSpace=wrap;rounded=0;" parent="1" vertex="1">
          <mxGeometry x="1740" y="230" width="80" height="30" as="geometry" />
        </mxCell>
        <mxCell id="KYm69CL8cMX49H1j501y-43" value="" style="rounded=0;orthogonalLoop=1;jettySize=auto;html=1;endArrow=halfCircle;endFill=0;endSize=6;strokeWidth=1;sketch=0;exitX=1;exitY=0.5;exitDx=0;exitDy=0;" parent="1" source="wbfZPtrRBLeSPW4oJf3d-79" target="KYm69CL8cMX49H1j501y-41" edge="1">
          <mxGeometry relative="1" as="geometry">
            <mxPoint x="1460" y="-165" as="sourcePoint" />
            <mxPoint x="1490" y="-165" as="targetPoint" />
          </mxGeometry>
        </mxCell>
        <mxCell id="KYm69CL8cMX49H1j501y-41" value="" style="ellipse;whiteSpace=wrap;html=1;align=center;aspect=fixed;fillColor=none;strokeColor=none;resizable=0;perimeter=centerPerimeter;rotatable=0;allowArrows=0;points=[];outlineConnect=1;" parent="1" vertex="1">
          <mxGeometry x="1495" y="-170" width="10" height="10" as="geometry" />
        </mxCell>
        <mxCell id="KYm69CL8cMX49H1j501y-45" value="" style="endArrow=open;endSize=12;dashed=1;html=1;rounded=0;exitX=0.967;exitY=0.883;exitDx=0;exitDy=0;exitPerimeter=0;" parent="1" source="KYm69CL8cMX49H1j501y-46" edge="1">
          <mxGeometry width="160" relative="1" as="geometry">
            <mxPoint x="1600" y="-110" as="sourcePoint" />
            <mxPoint x="1270" y="200" as="targetPoint" />
            <Array as="points">
              <mxPoint x="1280" y="180" />
            </Array>
          </mxGeometry>
        </mxCell>
        <mxCell id="KYm69CL8cMX49H1j501y-47" value="" style="rounded=0;orthogonalLoop=1;jettySize=auto;html=1;endArrow=halfCircle;endFill=0;endSize=6;strokeWidth=1;sketch=0;exitX=0.5;exitY=1;exitDx=0;exitDy=0;" parent="1" source="wbfZPtrRBLeSPW4oJf3d-105" target="KYm69CL8cMX49H1j501y-46" edge="1">
          <mxGeometry relative="1" as="geometry">
            <mxPoint x="1370" y="80" as="sourcePoint" />
            <mxPoint x="1370" y="134" as="targetPoint" />
          </mxGeometry>
        </mxCell>
        <mxCell id="KYm69CL8cMX49H1j501y-46" value="" style="ellipse;whiteSpace=wrap;html=1;align=center;aspect=fixed;fillColor=none;strokeColor=none;resizable=0;perimeter=centerPerimeter;rotatable=0;allowArrows=0;points=[];outlineConnect=1;" parent="1" vertex="1">
          <mxGeometry x="1365" y="129" width="10" height="10" as="geometry" />
        </mxCell>
        <mxCell id="KYm69CL8cMX49H1j501y-48" value="" style="rounded=0;orthogonalLoop=1;jettySize=auto;html=1;endArrow=halfCircle;endFill=0;endSize=6;strokeWidth=1;sketch=0;exitX=1;exitY=0.5;exitDx=0;exitDy=0;" parent="1" source="wbfZPtrRBLeSPW4oJf3d-83" target="KYm69CL8cMX49H1j501y-50" edge="1">
          <mxGeometry relative="1" as="geometry">
            <mxPoint x="1500" y="265" as="sourcePoint" />
          </mxGeometry>
        </mxCell>
        <mxCell id="KYm69CL8cMX49H1j501y-49" value="" style="rounded=0;orthogonalLoop=1;jettySize=auto;html=1;endArrow=oval;endFill=0;sketch=0;sourcePerimeterSpacing=0;targetPerimeterSpacing=0;endSize=10;exitX=0;exitY=0.5;exitDx=0;exitDy=0;" parent="1" source="jIf5_SYDW_eX0Bh0rf3I-10" target="KYm69CL8cMX49H1j501y-50" edge="1">
          <mxGeometry relative="1" as="geometry">
            <mxPoint x="1460" y="265" as="sourcePoint" />
          </mxGeometry>
        </mxCell>
        <mxCell id="KYm69CL8cMX49H1j501y-50" value="" style="ellipse;whiteSpace=wrap;html=1;align=center;aspect=fixed;fillColor=none;strokeColor=none;resizable=0;perimeter=centerPerimeter;rotatable=0;allowArrows=0;points=[];outlineConnect=1;" parent="1" vertex="1">
          <mxGeometry x="1670" y="30" width="10" height="10" as="geometry" />
        </mxCell>
        <mxCell id="KYm69CL8cMX49H1j501y-51" value="JpaRepository" style="text;html=1;align=center;verticalAlign=middle;whiteSpace=wrap;rounded=0;" parent="1" vertex="1">
          <mxGeometry x="1635" width="80" height="30" as="geometry" />
        </mxCell>
        <mxCell id="KYm69CL8cMX49H1j501y-55" value="" style="rounded=0;orthogonalLoop=1;jettySize=auto;html=1;endArrow=halfCircle;endFill=0;endSize=6;strokeWidth=1;sketch=0;exitX=0;exitY=0.5;exitDx=0;exitDy=0;" parent="1" source="wbfZPtrRBLeSPW4oJf3d-81" target="KYm69CL8cMX49H1j501y-57" edge="1">
          <mxGeometry relative="1" as="geometry">
            <mxPoint x="1540" y="310" as="sourcePoint" />
          </mxGeometry>
        </mxCell>
        <mxCell id="KYm69CL8cMX49H1j501y-57" value="" style="ellipse;whiteSpace=wrap;html=1;align=center;aspect=fixed;fillColor=none;strokeColor=none;resizable=0;perimeter=centerPerimeter;rotatable=0;allowArrows=0;points=[];outlineConnect=1;" parent="1" vertex="1">
          <mxGeometry x="1585" y="340" width="10" height="10" as="geometry" />
        </mxCell>
        <mxCell id="KYm69CL8cMX49H1j501y-58" value="" style="endArrow=open;endSize=12;dashed=1;html=1;rounded=0;exitX=0.633;exitY=0.867;exitDx=0;exitDy=0;exitPerimeter=0;" parent="1" source="KYm69CL8cMX49H1j501y-57" edge="1">
          <mxGeometry width="160" relative="1" as="geometry">
            <mxPoint x="1380" y="144" as="sourcePoint" />
            <mxPoint x="1280" y="210" as="targetPoint" />
            <Array as="points" />
          </mxGeometry>
        </mxCell>
        <mxCell id="KYm69CL8cMX49H1j501y-61" value="" style="endArrow=open;endSize=12;dashed=1;html=1;rounded=0;" parent="1" edge="1">
          <mxGeometry width="160" relative="1" as="geometry">
            <mxPoint x="1500" y="-60" as="sourcePoint" />
            <mxPoint x="1280" y="200" as="targetPoint" />
            <Array as="points">
              <mxPoint x="1570" y="50" />
              <mxPoint x="1500" y="130" />
            </Array>
          </mxGeometry>
        </mxCell>
        <mxCell id="KYm69CL8cMX49H1j501y-63" value="" style="rounded=0;orthogonalLoop=1;jettySize=auto;html=1;endArrow=halfCircle;endFill=0;endSize=6;strokeWidth=1;sketch=0;exitX=0.75;exitY=1;exitDx=0;exitDy=0;" parent="1" source="wbfZPtrRBLeSPW4oJf3d-79" edge="1">
          <mxGeometry relative="1" as="geometry">
            <mxPoint x="1515" y="-35" as="sourcePoint" />
            <mxPoint x="1500" y="-60" as="targetPoint" />
          </mxGeometry>
        </mxCell>
        <mxCell id="KYm69CL8cMX49H1j501y-65" value="" style="ellipse;whiteSpace=wrap;html=1;align=center;aspect=fixed;fillColor=none;strokeColor=none;resizable=0;perimeter=centerPerimeter;rotatable=0;allowArrows=0;points=[];outlineConnect=1;" parent="1" vertex="1">
          <mxGeometry x="1520" y="-30" width="10" height="10" as="geometry" />
        </mxCell>
        <mxCell id="KYm69CL8cMX49H1j501y-66" value="" style="endArrow=open;endSize=12;dashed=1;html=1;rounded=0;exitX=0.55;exitY=1.117;exitDx=0;exitDy=0;exitPerimeter=0;" parent="1" source="KYm69CL8cMX49H1j501y-41" edge="1">
          <mxGeometry width="160" relative="1" as="geometry">
            <mxPoint x="1238" y="135" as="sourcePoint" />
            <mxPoint x="1670" y="240" as="targetPoint" />
            <Array as="points">
              <mxPoint x="1610" y="-165" />
              <mxPoint x="1610" y="190" />
            </Array>
          </mxGeometry>
        </mxCell>
        <mxCell id="KYm69CL8cMX49H1j501y-67" value="" style="endArrow=open;endSize=12;dashed=1;html=1;rounded=0;exitX=0.8;exitY=0.617;exitDx=0;exitDy=0;exitPerimeter=0;" parent="1" source="mP5h9x_NBcfM7MQZ7Am3-39" edge="1">
          <mxGeometry width="160" relative="1" as="geometry">
            <mxPoint x="1535" y="35" as="sourcePoint" />
            <mxPoint x="1660" y="250" as="targetPoint" />
            <Array as="points">
              <mxPoint x="1590" y="35" />
              <mxPoint x="1590" y="250" />
            </Array>
          </mxGeometry>
        </mxCell>
        <mxCell id="KYm69CL8cMX49H1j501y-68" value="" style="rounded=0;orthogonalLoop=1;jettySize=auto;html=1;endArrow=halfCircle;endFill=0;endSize=6;strokeWidth=1;sketch=0;exitX=1;exitY=0.25;exitDx=0;exitDy=0;" parent="1" source="wbfZPtrRBLeSPW4oJf3d-105" target="KYm69CL8cMX49H1j501y-70" edge="1">
          <mxGeometry relative="1" as="geometry">
            <mxPoint x="1470" y="-25" as="sourcePoint" />
          </mxGeometry>
        </mxCell>
        <mxCell id="KYm69CL8cMX49H1j501y-69" value="" style="rounded=0;orthogonalLoop=1;jettySize=auto;html=1;endArrow=oval;endFill=0;sketch=0;sourcePerimeterSpacing=0;targetPerimeterSpacing=0;endSize=10;exitX=0;exitY=0.5;exitDx=0;exitDy=0;" parent="1" source="jIf5_SYDW_eX0Bh0rf3I-14" target="KYm69CL8cMX49H1j501y-70" edge="1">
          <mxGeometry relative="1" as="geometry">
            <mxPoint x="1430" y="-25" as="sourcePoint" />
          </mxGeometry>
        </mxCell>
        <mxCell id="KYm69CL8cMX49H1j501y-70" value="" style="ellipse;whiteSpace=wrap;html=1;align=center;aspect=fixed;fillColor=none;strokeColor=none;resizable=0;perimeter=centerPerimeter;rotatable=0;allowArrows=0;points=[];outlineConnect=1;" parent="1" vertex="1">
          <mxGeometry x="1750" y="-90" width="10" height="10" as="geometry" />
        </mxCell>
        <mxCell id="KYm69CL8cMX49H1j501y-71" value="JpaRepository" style="text;html=1;align=center;verticalAlign=middle;whiteSpace=wrap;rounded=0;" parent="1" vertex="1">
          <mxGeometry x="1715" y="-120" width="80" height="30" as="geometry" />
        </mxCell>
      </root>
    </mxGraphModel>
  </diagram>
</mxfile>
